# xmcd
#
# Track frame offsets:
#	150
#	21398
#	40728
#	59015
#	76688
#	91963
#	117285
#	132813
#	153663
#	173735
#
# Disc length: 2538 seconds
#
# Revision: 131074
# Processed by: cddbd v1.5.2PL0 Copyright (c) Steve Scherf et al.
# Submitted via: EZCDAudioConverter 8.0.2.1
#
DISCID=7a09e80a
DTITLE=Various Artist - Đoạn Khúc Tri Ân
DYEAR=1990
DGENRE=Miscellaneous
TTITLE0=Như Mai - Đoạn Khúc Tri Ân
TTITLE1=Elvis Phương - Mở rộng vòng tay
TTITLE2=Như Mai - Vui ngày trở về
TTITLE3=Elvis Phương - Xin vâng
TTITLE4=Như Mai - Lên đền
TTITLE5=Như Mai - Tình yêu thắm nồng
TTITLE6=Elvis Phương - Chúa dắt dìu con
TTITLE7=Như Mai - Thánh thần hãy đến
TTITLE8=Elvis Phương - Bước Người đi qua
TTITLE9=Như Mai - Chúa thương loài người
EXTD=
EXTT0=
EXTT1=
EXTT2=
EXTT3=
EXTT4=
EXTT5=
EXTT6=
EXTT7=
EXTT8=
EXTT9=
PLAYORDER=
